<svg xmlns="http://www.w3.org/2000/svg" xmlns:xlink="http://www.w3.org/1999/xlink" width="500" zoomAndPan="magnify" viewBox="0 0 375 374.999991" height="500" preserveAspectRatio="xMidYMid meet" version="1.0"><defs><clipPath id="ca11330d17"><path d="M 110 57.136719 L 251 57.136719 L 251 318 L 110 318 Z M 110 57.136719 " clip-rule="nonzero"/></clipPath><clipPath id="365132372d"><path d="M 250 198 L 337.5 198 L 337.5 318 L 250 318 Z M 250 198 " clip-rule="nonzero"/></clipPath><clipPath id="f03c20bcce"><path d="M 37.5 198 L 125 198 L 125 318 L 37.5 318 Z M 37.5 198 " clip-rule="nonzero"/></clipPath></defs><g clip-path="url(#ca11330d17)"><path fill="#0b1320" d="M 187.5 121.863281 L 162.148438 165.898438 L 249.613281 317.703125 L 129.148438 317.703125 L 110.570312 285.496094 L 193.847656 285.496094 L 124.964844 165.898438 L 187.5 57.320312 L 250.507812 166.554688 L 231.875 198.722656 Z M 187.5 121.863281 " fill-opacity="1" fill-rule="nonzero"/></g><g clip-path="url(#365132372d)"><path fill="#0b1320" d="M 337.492188 317.703125 L 300.3125 317.703125 L 250.53125 231.320312 L 269.117188 198.992188 Z M 337.492188 317.703125 " fill-opacity="1" fill-rule="nonzero"/></g><g clip-path="url(#f03c20bcce)"><path fill="#0b1320" d="M 124.644531 231.273438 L 74.679688 317.703125 L 37.5 317.703125 L 106.054688 198.957031 Z M 124.644531 231.273438 " fill-opacity="1" fill-rule="nonzero"/></g></svg>